<svg width="22" height="22" viewBox="0 0 22 22" fill="none" xmlns="http://www.w3.org/2000/svg">
<path d="M8.86235 13.9976C8.49659 13.9947 8.20163 13.6974 8.20164 13.3316V8.66925C8.20079 8.49205 8.27058 8.32181 8.39559 8.19621C8.52059 8.07061 8.69049 8 8.86769 8H13.5365C13.7136 8.00028 13.8833 8.07098 14.0083 8.19652C14.1332 8.32207 14.2031 8.49214 14.2025 8.66925V13.3305C14.2031 13.5076 14.1332 13.6777 14.0083 13.8032C13.8833 13.9288 13.7136 13.9995 13.5365 13.9998L8.86235 13.9976Z" fill="black"/>
<path d="M8.86235 13.9976C8.49659 13.9947 8.20163 13.6974 8.20164 13.3316V8.66925C8.20079 8.49205 8.27058 8.32181 8.39559 8.19621C8.52059 8.07061 8.69049 8 8.86769 8H13.5365C13.7136 8.00028 13.8833 8.07098 14.0083 8.19652C14.1332 8.32207 14.2031 8.49214 14.2025 8.66925V13.3305C14.2031 13.5076 14.1332 13.6777 14.0083 13.8032C13.8833 13.9288 13.7136 13.9995 13.5365 13.9998L8.86235 13.9976Z" fill="black"/>
<path fill-rule="evenodd" clip-rule="evenodd" d="M14.2016 0H3.6761C1.64584 0 0 1.64584 0 3.6761V14H4.00165V5.1619C4.00137 4.854 4.12348 4.55861 4.3411 4.34079C4.55872 4.12297 4.854 4.00058 5.1619 4.00058H14.2016V0ZM18.0013 8L18.0037 16.8402C18.0037 17.481 17.4842 18.0005 16.8434 18.0005H8.20163V22H18.3239C20.3547 22 22.0011 20.3537 22.0011 18.3228V8H18.0013Z" fill="black"/>
</svg>
